REM DIRINDEX 1\2,1\4,1\3\5,1\3\6,1\3\7
REM DIRNAME folder01,folder02,folder03,folder04,folder05,folder06,folder07
TITLE ""
FILE "CD1Track09.mp3" MP3
  TRACK 01 AUDIO
    TITLE "0:"
    INDEX 01 00:00:00
  TRACK 02 AUDIO
    TITLE "5:cjc081_0118"
    INDEX 01 00:00:21
  TRACK 03 AUDIO
    TITLE "0:"
    INDEX 01 00:01:36
  TRACK 04 AUDIO
    TITLE "6:cjc081_0119"
    INDEX 01 00:02:04
  TRACK 05 AUDIO
    TITLE "0:"
    INDEX 01 00:03:23
  TRACK 06 AUDIO
    TITLE "5:cjc081_0120"
    INDEX 01 00:03:66
  TRACK 07 AUDIO
    TITLE "0:"
    INDEX 01 00:05:38
  TRACK 08 AUDIO
    TITLE "6:cjc081_0121"
    INDEX 01 00:06:08
  TRACK 09 AUDIO
    TITLE "0:"
    INDEX 01 00:08:44
  TRACK 10 AUDIO
    TITLE "5:cjc081_0122"
    INDEX 01 00:09:12
  TRACK 11 AUDIO
    TITLE "0:"
    INDEX 01 00:10:53
  TRACK 12 AUDIO
    TITLE "6:cjc081_0123"
    INDEX 01 00:11:21
  TRACK 13 AUDIO
    TITLE "0:"
    INDEX 01 00:13:14
  TRACK 14 AUDIO
    TITLE "5:cjc081_0124"
    INDEX 01 00:13:55
  TRACK 15 AUDIO
    TITLE "0:"
    INDEX 01 00:15:15
  TRACK 16 AUDIO
    TITLE "6:cjc081_0125"
    INDEX 01 00:15:60
  TRACK 17 AUDIO
    TITLE "0:"
    INDEX 01 00:18:03
  TRACK 18 AUDIO
    TITLE "5:cjc081_0126"
    INDEX 01 00:18:46
  TRACK 19 AUDIO
    TITLE "0:"
    INDEX 01 00:19:60
  TRACK 20 AUDIO
    TITLE "6:cjc081_0127"
    INDEX 01 00:20:30
  TRACK 21 AUDIO
    TITLE "0:"
    INDEX 01 00:23:32
  TRACK 22 AUDIO
    TITLE "5:cjc081_0128"
    INDEX 01 00:24:02
  TRACK 23 AUDIO
    TITLE "0:"
    INDEX 01 00:25:39
  TRACK 24 AUDIO
    TITLE "6:cjc081_0129"
    INDEX 01 00:26:07
  TRACK 25 AUDIO
    TITLE "0:"
    INDEX 01 00:28:41
  TRACK 26 AUDIO
    TITLE "5:cjc081_0130"
    INDEX 01 00:29:05
  TRACK 27 AUDIO
    TITLE "0:"
    INDEX 01 00:30:20
  TRACK 28 AUDIO
    TITLE "6:cjc081_0131"
    INDEX 01 00:30:63
  TRACK 29 AUDIO
    TITLE "0:"
    INDEX 01 00:33:32
  TRACK 30 AUDIO
    TITLE "5:cjc081_0132"
    INDEX 01 00:34:02
  TRACK 31 AUDIO
    TITLE "0:"
    INDEX 01 00:35:29
  TRACK 32 AUDIO
    TITLE "6:cjc081_0133"
    INDEX 01 00:35:72
  TRACK 33 AUDIO
    TITLE "0:"
    INDEX 01 00:37:32
  TRACK 34 AUDIO
    TITLE "5:cjc081_0134"
    INDEX 01 00:38:00
  TRACK 35 AUDIO
    TITLE "0:"
    INDEX 01 00:39:23
  TRACK 36 AUDIO
    TITLE "6:cjc081_0135"
    INDEX 01 00:39:70
  TRACK 37 AUDIO
    TITLE "0:"
    INDEX 01 00:41:53
  TRACK 38 AUDIO
    TITLE "5:cjc081_0136"
    INDEX 01 00:42:19
  TRACK 39 AUDIO
    TITLE "0:"
    INDEX 01 00:43:33
  TRACK 40 AUDIO
    TITLE "6:cjc081_0137"
    INDEX 01 00:44:05
  TRACK 41 AUDIO
    TITLE "0:"
    INDEX 01 00:47:48
  TRACK 42 AUDIO
    TITLE "5:cjc081_0138"
    INDEX 01 00:48:16
  TRACK 43 AUDIO
    TITLE "0:"
    INDEX 01 00:49:47
  TRACK 44 AUDIO
    TITLE "6:cjc081_0139"
    INDEX 01 00:50:17
  TRACK 45 AUDIO
    TITLE "0:"
    INDEX 01 00:53:15
  TRACK 46 AUDIO
    TITLE "5:cjc081_0140"
    INDEX 01 00:53:58
  TRACK 47 AUDIO
    TITLE "0:"
    INDEX 01 00:55:32
  TRACK 48 AUDIO
    TITLE "6:cjc081_0141"
    INDEX 01 00:56:06
  TRACK 49 AUDIO
    TITLE "0:"
    INDEX 01 00:58:18
  TRACK 50 AUDIO
    TITLE "5:cjc081_0142"
    INDEX 01 00:58:58
  TRACK 51 AUDIO
    TITLE "0:"
    INDEX 01 01:00:51
  TRACK 52 AUDIO
    TITLE "6:cjc081_0143"
    INDEX 01 01:01:17
  TRACK 53 AUDIO
    TITLE "0:"
    INDEX 01 01:04:50
  TRACK 54 AUDIO
    TITLE "5:cjc081_0144"
    INDEX 01 01:05:21
  TRACK 55 AUDIO
    TITLE "0:"
    INDEX 01 01:06:42
  TRACK 56 AUDIO
    TITLE "6:cjc081_0145"
    INDEX 01 01:07:12
  TRACK 57 AUDIO
    TITLE "0:"
    INDEX 01 01:09:10
  TRACK 58 AUDIO
    TITLE "5:cjc081_0146"
    INDEX 01 01:09:52
  TRACK 59 AUDIO
    TITLE "0:"
    INDEX 01 01:11:03
  TRACK 60 AUDIO
    TITLE "6:cjc081_0147"
    INDEX 01 01:11:49
  TRACK 61 AUDIO
    TITLE "0:"
    INDEX 01 01:12:68
  TRACK 62 AUDIO
    TITLE "7:cjc081_0148"
    INDEX 01 01:14:29
  TRACK 63 AUDIO
    TITLE "0:"
    INDEX 01 01:25:68
